<svg width="56" height="56" viewBox="0 0 56 56" fill="none" xmlns="http://www.w3.org/2000/svg">
<path fill-rule="evenodd" clip-rule="evenodd" d="M31.8 36.237C30.883 39.664 30.858 42.522 31.726 44.811C33.321 49.019 38.926 50.23 39.19 51.333C39.454 52.437 31.726 53 27.358 53C22.991 53 17.634 52.167 17.634 51.333C17.634 50.5 22.718 49.394 24.263 44.733C25.163 42.016 25.065 38.895 23.967 35.372C23.6935 35.4575 23.4085 35.5007 23.122 35.5C21.931 35.5 20.939 34.77 20.725 33.806C19.903 34.346 18.873 34.666 17.756 34.666C15.346 34.666 13.345 33.174 12.949 31.212C12.6059 31.2929 12.2545 31.3335 11.902 31.333C9.747 31.333 8 29.841 8 28C8 26.757 8.796 25.673 9.977 25.1C9.37 24.721 8.976 24.108 8.976 23.417C8.976 23.177 9.023 22.946 9.111 22.731C8.442 22.434 8 21.92 8 21.333C8 20.606 8.682 19.988 9.632 19.76C8.637 19.15 8 18.214 8 17.167C8 15.504 9.603 14.127 11.699 13.874C11.2047 13.276 10.932 12.5258 10.927 11.75C10.927 9.679 12.892 8 15.317 8C15.561 8 15.801 8.017 16.035 8.05C16.62 6.567 18.262 5.5 20.195 5.5C20.732 5.5 21.246 5.582 21.722 5.733C22.052 4.179 23.646 3 25.56 3C27.518 3 29.14 4.232 29.42 5.837C30.135 5.121 31.2 4.667 32.39 4.667C34.545 4.667 36.292 6.159 36.292 8C36.292 8.62 36.093 9.201 35.748 9.699C35.925 9.678 36.107 9.667 36.292 9.667C38.298 9.667 39.952 10.96 40.17 12.625C40.7837 12.3207 41.46 12.1638 42.145 12.167C44.301 12.167 46.048 13.659 46.048 15.5C46.048 16.755 45.236 17.848 44.036 18.417C45.236 18.985 46.048 20.078 46.048 21.333C46.048 22.423 45.435 23.392 44.488 24C44.854 24.418 45.072 24.937 45.072 25.5C45.072 25.716 45.04 25.925 44.98 26.124C46.78 26.977 47.999 28.617 47.999 30.5C47.999 33.261 45.379 35.5 42.145 35.5C41.3385 35.5024 40.5383 35.3588 39.783 35.076C38.897 35.852 37.66 36.333 36.292 36.333C35.2456 36.3412 34.2192 36.0459 33.337 35.483C32.917 35.84 32.39 36.104 31.8 36.237Z" fill="#50623A"/>
</svg>
