<svg width="31" height="31" viewBox="0 0 31 31" fill="none" xmlns="http://www.w3.org/2000/svg">
<path d="M28.7266 13.4739H17.6094V2.01692C17.6094 1.51049 17.4142 1.0248 17.0667 0.666702C16.7192 0.308601 16.2479 0.107422 15.7565 0.107422C15.2651 0.107422 14.7938 0.308601 14.4463 0.666702C14.0989 1.0248 13.9036 1.51049 13.9036 2.01692V13.4739H2.78646C2.29505 13.4739 1.82377 13.6751 1.47629 14.0332C1.12881 14.3913 0.933594 14.877 0.933594 15.3834C0.933594 15.8898 1.12881 16.3755 1.47629 16.7336C1.82377 17.0917 2.29505 17.2929 2.78646 17.2929H13.9036V28.7499C13.9036 29.2563 14.0989 29.742 14.4463 30.1001C14.7938 30.4582 15.2651 30.6594 15.7565 30.6594C16.2479 30.6594 16.7192 30.4582 17.0667 30.1001C17.4142 29.742 17.6094 29.2563 17.6094 28.7499V17.2929H28.7266C29.218 17.2929 29.6893 17.0917 30.0367 16.7336C30.3842 16.3755 30.5794 15.8898 30.5794 15.3834C30.5794 14.877 30.3842 14.3913 30.0367 14.0332C29.6893 13.6751 29.218 13.4739 28.7266 13.4739Z" fill="white"/>
</svg>
